<?xml version="1.0" encoding="UTF-8" standalone="no"?>
<svg
   xmlns:dc="http://purl.org/dc/elements/1.1/"
   xmlns:cc="http://creativecommons.org/ns#"
   xmlns:rdf="http://www.w3.org/1999/02/22-rdf-syntax-ns#"
   xmlns:svg="http://www.w3.org/2000/svg"
   xmlns="http://www.w3.org/2000/svg"
   xmlns:sodipodi="http://sodipodi.sourceforge.net/DTD/sodipodi-0.dtd"
   xmlns:inkscape="http://www.inkscape.org/namespaces/inkscape"
   version="1.0"
   width="320.000000pt"
   height="320.000000pt"
   viewBox="0 0 320.000000 320.000000"
   preserveAspectRatio="xMidYMid meet"
   id="svg6"
   sodipodi:docname="raptor-logo.svg"
   inkscape:version="0.92.3 (2405546, 2018-03-11)">
  <metadata
     id="metadata12">
    <rdf:RDF>
      <cc:Work
         rdf:about="">
        <dc:format>image/svg+xml</dc:format>
        <dc:type
           rdf:resource="http://purl.org/dc/dcmitype/StillImage" />
        <dc:title></dc:title>
      </cc:Work>
    </rdf:RDF>
  </metadata>
  <defs
     id="defs10" />
  <sodipodi:namedview
     pagecolor="#ffffff"
     bordercolor="#666666"
     borderopacity="1"
     objecttolerance="10"
     gridtolerance="10"
     guidetolerance="10"
     inkscape:pageopacity="0"
     inkscape:pageshadow="2"
     inkscape:window-width="1920"
     inkscape:window-height="1017"
     id="namedview8"
     showgrid="false"
     inkscape:zoom="2.2125"
     inkscape:cx="275.74495"
     inkscape:cy="168.60277"
     inkscape:window-x="-8"
     inkscape:window-y="-8"
     inkscape:window-maximized="1"
     inkscape:current-layer="svg6" />
  <g
     transform="translate(0.000000,320.000000) scale(0.100000,-0.100000)"
     fill="#000000"
     stroke="none"
     id="g4">
    <path
       d="M920 1864 c-17 -6 -156 -71 -180 -83 -8 -5 -17 -18 -18 -31 -4 -22 -2 -23 42 -17 25 4 57 14 71 23 27 18 45 12 45 -15 0 -31 -35 -54 -69 -46 -20 4 -31 3 -31 -4 0 -6 6 -11 14 -11 23 0 31 -22 12 -32 -19 -11 -12 -28 11 -28 8 0 45 29 82 65 40 38 76 65 89 65 20 0 66 -34 159 -117 24 -20 54 -43 68 -50 31 -17 31 -16 0 -47 -51 -51 -13 -141 57 -134 17 2 33 9 36 16 2 8 -2 10 -14 5 -12 -4 -15 -3 -10 5 4 7 2 12 -4 12 -8 0 -8 6 0 20 6 12 7 20 1 20 -5 0 -11 -5 -13 -11 -5 -16 -48 7 -48 24 0 18 63 47 101 47 16 0 53 -12 82 -26 28 -15 72 -32 97 -38 29 -7 46 -17 48 -28 2 -12 -3 -18 -16 -18 -29 0 -46 -24 -27 -40 9 -7 15 -29 15 -55 0 -30 4 -42 15 -42 8 0 15 8 15 18 0 10 6 24 14 32 9 8 11 19 6 28 -11 17 6 39 31 39 44 0 114 -27 148 -57 33 -29 34 -31 11 -27 -14 2 -19 2 -12 -2 6 -3 12 -14 12 -24 0 -10 9 -22 20 -25 26 -8 25 -19 -2 -33 l-23 -11 23 0 c42 -2 63 17 60 52 -3 31 -13 42 -148 167 -41 39 -44 45 -45 93 l0 51 87 23 c161 41 496 83 665 83 108 0 277 -19 326 -36 22 -8 49 -14 61 -14 19 1 18 2 -6 15 -38 21 -133 42 -283 61 -133 18 -541 24 -830 14 -115 -4 -134 -3 -165 14 -40 22 -166 28 -278 12 l-63 -9 -54 53 c-52 51 -57 54 -112 57 -32 1 -65 0 -73 -3z"
       id="path2" />
  </g>
</svg>
